<svg width="53" height="53" viewBox="0 0 53 53" fill="none" xmlns="http://www.w3.org/2000/svg">
<path d="M26.5 29.7916C28.318 29.7916 29.7917 28.318 29.7917 26.5C29.7917 24.682 28.318 23.2083 26.5 23.2083C24.6821 23.2083 23.2084 24.682 23.2084 26.5C23.2084 28.318 24.6821 29.7916 26.5 29.7916Z" fill="white"/>
<path fill-rule="evenodd" clip-rule="evenodd" d="M52.8333 26.5C52.8333 41.0436 41.0435 52.8334 26.5 52.8334C11.9565 52.8334 0.166626 41.0436 0.166626 26.5C0.166626 11.9565 11.9565 0.166687 26.5 0.166687C41.0435 0.166687 52.8333 11.9565 52.8333 26.5ZM39.6666 26.5C39.6666 33.7716 33.7716 39.6667 26.5 39.6667C19.2282 39.6667 13.3333 33.7716 13.3333 26.5C13.3333 19.2283 19.2282 13.3334 26.5 13.3334C33.7716 13.3334 39.6666 19.2283 39.6666 26.5Z" fill="white"/>
</svg>
