<svg width="21" height="23" viewBox="0 0 21 23" fill="none" xmlns="http://www.w3.org/2000/svg">
<path d="M20.2748 21.3661C19.5876 16.743 17.795 12.1872 13.566 10.7263C15.2096 9.70267 16.3005 7.88132 16.3005 5.80046C16.3005 2.59987 13.7054 0 10.5 0C7.29463 0 4.69956 2.59507 4.69956 5.80046C4.69956 7.87651 5.79526 9.70267 7.434 10.7263C3.205 12.1872 1.40767 16.743 0.725264 21.3661C0.595511 22.2263 1.27311 23 2.14294 23H18.8475C19.7269 23 20.4045 22.2263 20.2748 21.3661ZM6.88615 5.80046C6.88615 3.8061 8.51047 2.18178 10.5048 2.18178C10.9806 2.18178 11.3699 2.57104 11.3699 3.0468C11.3699 3.52257 10.9806 3.91183 10.5048 3.91183C9.462 3.91183 8.6162 4.75763 8.6162 5.80046C8.6162 6.27622 8.22694 6.66548 7.75117 6.66548C7.27061 6.66548 6.88615 6.28103 6.88615 5.80046Z" fill="#C4C4C4" fill-opacity="0.8"/>
</svg>
