<svg width="20" height="22" viewBox="0 0 20 22" fill="none" xmlns="http://www.w3.org/2000/svg">
<path d="M19.1666 14.5V1.66671C19.1658 1.49147 19.1255 1.31866 19.0488 1.16112C18.972 1.00358 18.8608 0.865353 18.7233 0.756705C18.5877 0.647064 18.4294 0.569191 18.2598 0.528812C18.0902 0.488433 17.9137 0.486574 17.7433 0.523372L7.24328 2.85671C6.98407 2.91516 6.75258 3.06035 6.58711 3.26825C6.42163 3.47616 6.33209 3.73432 6.33328 4.00004V13.73C5.53684 13.354 4.63994 13.2464 3.77716 13.4233C2.91437 13.6003 2.13221 14.0522 1.54801 14.7113C0.963816 15.3704 0.609082 16.2011 0.537029 17.0789C0.464975 17.9567 0.679487 18.8342 1.14838 19.5797C1.61728 20.3253 2.31528 20.8987 3.13767 21.2139C3.96005 21.5292 4.86249 21.5693 5.70959 21.3282C6.55669 21.0871 7.30278 20.5778 7.83593 19.8768C8.36909 19.1758 8.66056 18.3208 8.66662 17.44C8.67869 17.238 8.67869 17.0354 8.66662 16.8334V4.93337L16.8333 3.12504V11.3967C16.0364 11.0205 15.1389 10.913 14.2757 11.0903C13.4125 11.2676 12.6301 11.7202 12.0461 12.38C11.462 13.0399 11.1078 13.8715 11.0366 14.7499C10.9655 15.6282 11.1812 16.506 11.6514 17.2513C12.1216 17.9966 12.821 18.5692 13.6444 18.8832C14.4678 19.1971 15.3708 19.2355 16.2179 18.9924C17.065 18.7494 17.8103 18.2381 18.342 17.5353C18.8737 16.8326 19.1631 15.9763 19.1666 15.095C19.1777 14.8969 19.1777 14.6982 19.1666 14.5Z" fill="#C4C4C4" fill-opacity="0.8"/>
</svg>
