<svg width="21" height="21" viewBox="0 0 21 21" fill="none" xmlns="http://www.w3.org/2000/svg">
<path d="M20.872 9.34215V15.9223C20.872 17.2334 20.3512 18.4907 19.4241 19.4178C18.497 20.3449 17.2397 20.8657 15.9286 20.8657H13.1823V15.9223C13.1823 15.1939 12.893 14.4954 12.3779 13.9804C11.8629 13.4653 11.1644 13.176 10.436 13.176C9.70763 13.176 9.00909 13.4653 8.49406 13.9804C7.97902 14.4954 7.68968 15.1939 7.68968 15.9223V20.8657H4.94337C3.63231 20.8657 2.37494 20.3449 1.44788 19.4178C0.520821 18.4907 4.18589e-06 17.2334 4.18589e-06 15.9223V9.34215C-0.000958764 8.60403 0.164233 7.87516 0.483331 7.20958C0.802429 6.544 1.26725 5.95878 1.84333 5.49731L7.33596 1.08344C8.21675 0.381956 9.30945 0 10.4354 0C11.5614 0 12.6541 0.381956 13.5349 1.08344L19.0276 5.49731C19.604 5.95856 20.0691 6.54371 20.3884 7.20932C20.7077 7.87493 20.873 8.60391 20.872 9.34215Z" fill="white"/>
</svg>
