<svg width="22" height="18" viewBox="0 0 22 18" fill="none" xmlns="http://www.w3.org/2000/svg">
<path fill-rule="evenodd" clip-rule="evenodd" d="M0 4.23682V4.25452V4.82881V6.17524C0 6.68086 0.532947 7.00902 0.984429 6.78139L2.18671 6.17524L2.69951 5.9167L2.71531 5.90875L4.62106 4.94793L4.71708 4.89952L5.61504 4.44679L6.43455 4.03363C6.93218 3.78274 6.93218 3.07222 6.43455 2.82133L5.61504 2.40816L4.71708 1.95545L4.62106 1.90704L2.71531 0.946225L2.69951 0.938256L2.18671 0.679717L0.98443 0.073564C0.532947 -0.154061 0 0.174098 0 0.679717V2.02616V2.60045V2.61814V4.23682ZM12.2189 2.06982C11.4691 2.06982 10.8613 2.67767 10.8613 3.42748C10.8613 4.1773 11.4691 4.78514 12.2189 4.78514H19.0072V14.2887H5.43063V10.2158C5.43063 9.46596 4.82278 8.85811 4.07297 8.85811C3.32316 8.85811 2.71531 9.46596 2.71531 10.2158V14.2887C2.71531 15.7884 3.931 17.004 5.43063 17.004H19.0072C20.5069 17.004 21.7225 15.7884 21.7225 14.2887V4.78514C21.7225 3.28551 20.5069 2.06982 19.0072 2.06982H12.2189ZM6.78828 7.50045C6.78828 6.75064 7.39613 6.14279 8.14594 6.14279H16.2919C17.0417 6.14279 17.6495 6.75064 17.6495 7.50045C17.6495 8.25027 17.0417 8.85811 16.2919 8.85811H8.14594C7.39613 8.85811 6.78828 8.25027 6.78828 7.50045ZM8.14594 10.2158C7.39613 10.2158 6.78828 10.8236 6.78828 11.5734C6.78828 12.3233 7.39613 12.9311 8.14594 12.9311H13.5766C14.3264 12.9311 14.9342 12.3233 14.9342 11.5734C14.9342 10.8236 14.3264 10.2158 13.5766 10.2158H8.14594Z" fill="white"/>
</svg>
